<svg width="32" height="32" viewBox="0 0 32 32" fill="none" xmlns="http://www.w3.org/2000/svg">
<path d="M27.0787 23.6106C29.5947 20.8799 29.3413 17.3733 29.3333 17.3333V6.66659C29.3333 6.31296 29.1929 5.97382 28.9428 5.72378C28.6928 5.47373 28.3536 5.33325 28 5.33325H20C18.5293 5.33325 17.3333 6.52925 17.3333 7.99992V17.3333C17.3333 17.6869 17.4738 18.026 17.7239 18.2761C17.9739 18.5261 18.3131 18.6666 18.6667 18.6666H22.7707C22.7425 19.3258 22.5456 19.9667 22.1987 20.5279C21.5213 21.5959 20.2453 22.3253 18.404 22.6933L17.3333 22.9066V26.6666H18.6667C22.3773 26.6666 25.208 25.6386 27.0787 23.6106ZM12.4027 23.6106C14.92 20.8799 14.6653 17.3733 14.6573 17.3333V6.66659C14.6573 6.31296 14.5169 5.97382 14.2668 5.72378C14.0168 5.47373 13.6776 5.33325 13.324 5.33325H5.32402C3.85335 5.33325 2.65735 6.52925 2.65735 7.99992V17.3333C2.65735 17.6869 2.79782 18.026 3.04787 18.2761C3.29792 18.5261 3.63706 18.6666 3.99068 18.6666H8.09468C8.06651 19.3258 7.86956 19.9667 7.52268 20.5279C6.84535 21.5959 5.56935 22.3253 3.72802 22.6933L2.65735 22.9066V26.6666H3.99068C7.70135 26.6666 10.532 25.6386 12.4027 23.6106Z" fill="#B83B5E"/>
</svg>
